# xmcd
# 
# Track frame offsets:
#     150
#     18945
#     36175
#     60185
#     79775
#     101570
#     119447
#     141540
#     158155
#     182730
#     203320
# 
# Disc length: 2975
# 
# Revision: 0
# Processed by: cddbd v1.5.2PL0 Copyright (c) Steve Scherf et al.
# Submitted via: fre:ac v1.0.31
# 
DISCID=870b9d0b
DTITLE=Ohio Players - Back
DYEAR=0
DGENRE=R&B
TTITLE0=Get 2 the Good Part
TTITLE1=Sweat
TTITLE2=From Now ON (Let's Play)
TTITLE3=Show Off
TTITLE4=Just to Show My Love
TTITLE5=I'm Madd!
TTITLE6=Vibe Alive
TTITLE7=Rock the House
TTITLE8=Just a Minute
TTITLE9=Reputation
TTITLE10=Try
EXTD=
EXTT0=
EXTT1=
EXTT2=
EXTT3=
EXTT4=
EXTT5=
EXTT6=
EXTT7=
EXTT8=
EXTT9=
EXTT10=
PLAYORDER=
